<svg width="35" height="36" viewBox="0 0 35 36" fill="none" xmlns="http://www.w3.org/2000/svg">
<rect y="0.5" width="35" height="34.9961" fill="#FFC020"/>
<path d="M0.58753 31.0943C0.384912 31.3532 0 32.0239 0 32.0239V35.4962H35V32.0512C35 32.0512 34.6145 31.3799 34.4115 31.1208C33.2346 29.6177 31.6373 27.9189 31.6373 27.9189C31.6373 27.9189 30.1083 26.0541 29.5076 25.2096C28.5288 23.8335 28.0924 22.8456 27.5741 21.5699C26.6332 19.2542 26.7334 15.823 26.7334 15.823L26.6493 10.9792C26.4532 9.00879 25.7526 7.28382 25.5004 6.84685C25.2482 6.40987 24.2339 4.91639 23.0064 4.16495C21.1289 3.01556 19.7101 2.79603 17.486 2.79663C15.2654 2.79723 13.8489 3.01536 11.9744 4.16367C10.7489 4.91441 9.73621 6.40649 9.48441 6.84306C9.23261 7.27963 8.53317 9.00298 8.33733 10.9715L8.2534 15.8108C8.2534 15.8108 8.35347 19.2388 7.41407 21.5524C6.8966 22.8268 6.4609 23.8139 5.48361 25.1887C4.88387 26.0324 3.35731 27.8954 3.35731 27.8954C3.35731 27.8954 1.76259 29.5927 0.58753 31.0943Z" fill="#212121"/>
<path d="M30.625 33.6955C30.625 28.5119 27.5166 24.0421 23.0326 21.9898C21.0337 23.5983 18.4429 25.1105 17.5 25.1105C16.5571 25.1105 13.9663 23.5983 11.9674 21.9898C7.48338 24.0421 4.375 28.5119 4.375 33.6955C4.375 34.3079 4.41839 34.9103 4.5023 35.5H30.4977C30.5816 34.9103 30.625 34.3079 30.625 33.6955Z" fill="white"/>
<path d="M14.4375 8.2101C12.2931 8.2101 10.5547 9.9483 10.5547 12.0925C10.5547 13.0746 10.9194 13.9716 11.5209 14.6554C13.2446 14.4875 15.2674 14.3903 17.4316 14.3891L17.5684 14.3892C19.733 14.392 21.7546 14.4908 23.4748 14.6603C24.0788 13.9759 24.4453 13.077 24.4453 12.0925C24.4453 9.9483 22.7069 8.2101 20.5625 8.2101C19.3182 8.2101 18.2106 8.79534 17.5 9.70555C16.7894 8.79534 15.6818 8.2101 14.4375 8.2101Z" fill="white"/>
<path d="M16.1023 12.1765C16.1023 13.0059 15.4236 13.6782 14.5863 13.6782C13.749 13.6782 13.0703 13.0059 13.0703 12.1765C13.0703 11.3471 13.749 10.6747 14.5863 10.6747C15.4236 10.6747 16.1023 11.3471 16.1023 12.1765Z" fill="#212121"/>
<path d="M20.021 10.6747C19.2201 10.7314 18.5622 11.3831 18.3047 12.1765C18.268 12.2898 18.2574 12.5752 18.3906 12.7715C18.5578 13.018 18.8293 13.1388 19.077 13.1115C19.5347 13.0549 19.5919 12.7999 19.7349 12.5165C19.9351 12.1198 19.9763 12.0632 20.0782 12.0632C20.2212 12.0632 20.45 12.6299 20.6216 12.9982C20.7932 13.3666 21.1937 13.3099 21.3081 13.3099C21.5941 13.3099 21.68 13.1965 21.8516 12.9982C21.966 12.8282 21.9449 12.5009 21.8516 12.2615C21.3653 11.0148 20.7074 10.6262 20.021 10.6747Z" fill="#1E1E1E"/>
<path d="M24.1719 17.2052C24.1719 16.3747 21.1725 15.7015 17.4727 15.7015C13.7728 15.7015 10.7734 16.3747 10.7734 17.2052C10.7734 18.955 16.1328 23.4115 17.4727 23.4115C18.8125 23.4115 24.1719 18.955 24.1719 17.2052Z" fill="#FFC020"/>
<path d="M13.856 20.3278C15.3834 21.5739 16.7209 22.3768 17.274 22.4486C17.358 22.4595 17.4525 22.474 17.5237 22.474C17.595 22.474 17.6894 22.4595 17.7734 22.4486C18.3265 22.3768 19.664 21.5739 21.1914 20.3278C21.6692 19.938 22.0839 19.5101 22.4693 19.1464C21.9523 19.5497 21.1936 19.9075 20.3164 20.2614C19.2313 20.6991 18.2333 21.0197 17.5237 21.0268C16.8142 21.0197 15.8162 20.6991 14.731 20.2614C13.8538 19.9075 13.0952 19.5497 12.5781 19.1464C12.9635 19.5101 13.3782 19.938 13.856 20.3278Z" fill="#FF3E03"/>
</svg>
