<svg width="512" height="512" viewBox="0 0 512 512" fill="none" xmlns="http://www.w3.org/2000/svg">
<rect y="0.00518799" width="512" height="511.944" fill="#FFC020"/>
<path d="M8.59472 447.556C5.63072 451.344 0 461.154 0 461.154V511.949H512V461.554C512 461.554 506.36 451.734 503.392 447.943C486.175 425.956 462.809 401.105 462.809 401.105C462.809 401.105 440.442 373.825 431.654 361.472C417.335 341.342 410.951 326.889 403.369 308.228C389.605 274.352 391.071 224.159 391.071 224.159L389.842 153.3C386.972 124.476 376.724 99.2427 373.035 92.8504C369.345 86.458 354.507 64.6106 336.551 53.618C309.086 36.8042 288.331 33.5927 255.795 33.6015C223.31 33.6103 202.59 36.8012 175.169 53.5993C157.241 64.5816 142.427 86.4086 138.743 92.795C135.06 99.1814 124.828 124.392 121.963 153.188L120.735 223.981C120.735 223.981 122.199 274.127 108.457 307.971C100.887 326.615 94.5138 341.054 80.2174 361.165C71.444 373.508 49.1127 400.761 49.1127 400.761C49.1127 400.761 25.7842 425.589 8.59472 447.556Z" fill="#212121"/>
<path d="M448 485.608C448 409.779 402.529 344.393 336.934 314.371C307.693 337.901 269.794 360.022 256 360.022C242.206 360.022 204.307 337.901 175.066 314.371C109.471 344.393 64 409.779 64 485.608C64 494.567 64.6347 503.379 65.8622 512.005H446.138C447.365 503.379 448 494.567 448 485.608Z" fill="white"/>
<path d="M211.2 112.793C179.83 112.793 154.4 138.22 154.4 169.587C154.4 183.954 159.736 197.075 168.534 207.078C193.75 204.622 223.34 203.201 254.999 203.183L257 203.184C288.666 203.225 318.239 204.671 343.403 207.15C352.239 197.139 357.6 183.989 357.6 169.587C357.6 138.22 332.17 112.793 300.8 112.793C282.598 112.793 266.395 121.354 256 134.669C245.605 121.354 229.402 112.793 211.2 112.793Z" fill="white"/>
<path d="M235.553 170.815C235.553 182.948 225.625 192.784 213.377 192.784C201.129 192.784 191.2 182.948 191.2 170.815C191.2 158.683 201.129 148.847 213.377 148.847C225.625 148.847 235.553 158.683 235.553 170.815Z" fill="#212121"/>
<path d="M292.878 148.847C281.162 149.676 271.538 159.209 267.772 170.815C267.234 172.473 267.079 176.648 269.028 179.52C271.473 183.125 275.446 184.893 279.07 184.494C285.765 183.665 286.602 179.934 288.694 175.789C291.623 169.986 292.224 169.157 293.715 169.157C295.807 169.157 299.154 177.447 301.665 182.836C304.176 188.224 310.034 187.395 311.707 187.395C315.892 187.395 317.147 185.737 319.657 182.836C321.331 180.349 321.023 175.56 319.657 172.059C312.544 153.821 302.92 148.136 292.878 148.847Z" fill="#1E1E1E"/>
<path d="M353.6 244.378C353.6 232.229 309.724 222.381 255.6 222.381C201.476 222.381 157.6 232.229 157.6 244.378C157.6 269.975 236 335.168 255.6 335.168C275.2 335.168 353.6 269.975 353.6 244.378Z" fill="#FFC020"/>
<path d="M202.694 290.058C225.037 308.286 244.603 320.032 252.694 321.082C253.923 321.242 255.304 321.453 256.347 321.453C257.39 321.453 258.771 321.242 260 321.082C268.091 320.032 287.657 308.286 310 290.058C316.99 284.355 323.056 278.096 328.694 272.775C321.13 278.676 310.032 283.909 297.2 289.086C281.326 295.49 266.727 300.18 256.347 300.283C245.967 300.18 231.368 295.49 215.494 289.086C202.662 283.909 191.564 278.676 184 272.775C189.638 278.096 195.704 284.355 202.694 290.058Z" fill="#FF3E03"/>
</svg>
