<svg width="351" height="307" viewBox="0 0 351 307" fill="none" xmlns="http://www.w3.org/2000/svg">
<path d="M143.315 59.4261C120.695 59.4261 102.358 78.5072 102.358 102.045C102.358 112.826 106.206 122.673 112.55 130.179C130.732 128.336 152.069 127.269 174.897 127.256L176.34 127.257C199.173 127.288 220.497 128.372 238.642 130.233C245.013 122.72 248.879 112.852 248.879 102.045C248.879 78.5072 230.542 59.4261 207.922 59.4261C194.797 59.4261 183.114 65.8506 175.619 75.8424C168.123 65.8506 156.44 59.4261 143.315 59.4261Z" fill="white"/>
<path d="M160.875 102.967C160.875 112.072 153.716 119.452 144.884 119.452C136.053 119.452 128.894 112.072 128.894 102.967C128.894 93.8624 136.053 86.4816 144.884 86.4816C153.716 86.4816 160.875 93.8624 160.875 102.967Z" fill="#212121"/>
<path d="M202.21 86.4816C193.762 87.1037 186.823 94.2578 184.107 102.967C183.719 104.211 183.607 107.344 185.012 109.499C186.776 112.204 189.64 113.531 192.254 113.232C197.081 112.609 197.684 109.81 199.193 106.7C201.305 102.345 201.739 101.723 202.814 101.723C204.322 101.723 206.736 107.944 208.546 111.987C210.356 116.031 214.58 115.409 215.787 115.409C218.804 115.409 219.71 114.165 221.52 111.987C222.727 110.121 222.505 106.528 221.52 103.9C216.391 90.2142 209.451 85.9484 202.21 86.4816Z" fill="#1E1E1E"/>
<path d="M245.995 158.169C245.995 149.053 214.357 141.662 175.33 141.662C136.303 141.662 104.666 149.053 104.666 158.169C104.666 177.378 161.197 226.299 175.33 226.299C189.463 226.299 245.995 177.378 245.995 158.169Z" fill="#FFC020"/>
<path d="M137.182 192.448C153.292 206.127 167.401 214.941 173.235 215.729C174.121 215.849 175.117 216.007 175.869 216.007C176.621 216.007 177.617 215.849 178.503 215.729C184.337 214.941 198.445 206.127 214.556 192.448C219.596 188.168 223.971 183.472 228.036 179.479C222.582 183.907 214.579 187.834 205.327 191.718C193.881 196.524 183.353 200.043 175.869 200.121C168.384 200.043 157.857 196.524 146.411 191.718C137.158 187.834 129.156 183.907 123.702 179.479C127.767 183.472 132.141 188.168 137.182 192.448Z" fill="#FF3E03"/>
<path fill-rule="evenodd" clip-rule="evenodd" d="M48.8677 245.808C42.5415 255.07 26.4391 275.521 26.4391 275.521C26.4391 275.521 11.9841 291.531 0 307H40.764C50.4841 264.197 79.1657 228.838 117.26 210.693C138.345 228.35 165.672 244.95 175.619 244.95C185.565 244.95 212.893 228.35 233.977 210.693C272.072 228.838 300.753 264.197 310.473 307H351C339.041 291.606 324.742 275.779 324.742 275.779C324.742 275.779 308.613 255.308 302.277 246.038C291.952 230.932 287.349 220.086 281.882 206.083C271.957 180.662 273.014 142.996 273.014 142.996L272.127 89.8234C270.058 68.1937 262.669 49.258 260.008 44.4611C257.348 39.6642 246.649 23.2696 233.701 15.0206C213.897 2.40331 198.932 -0.00659109 175.471 1.35186e-05C152.047 0.00660784 137.106 2.40107 117.334 15.0066C104.407 23.2479 93.7248 39.6271 91.0688 44.4195C88.4128 49.212 81.035 68.1299 78.9692 89.7394L78.0839 142.863C78.0839 142.863 79.1394 180.493 69.2305 205.89C63.7721 219.881 59.1763 230.716 48.8677 245.808ZM143.315 59.4261C120.695 59.4261 102.358 78.5072 102.358 102.045C102.358 112.826 106.206 122.673 112.55 130.179C130.732 128.336 152.069 127.269 174.897 127.256L176.34 127.257C199.173 127.288 220.497 128.372 238.642 130.233C245.013 122.72 248.879 112.852 248.879 102.045C248.879 78.5072 230.542 59.4261 207.922 59.4261C194.797 59.4261 183.114 65.8506 175.619 75.8424C168.123 65.8506 156.44 59.4261 143.315 59.4261ZM245.995 158.169C245.995 149.053 214.357 141.662 175.33 141.662C136.303 141.662 104.666 149.053 104.666 158.169C104.666 177.378 161.197 226.299 175.33 226.299C189.463 226.299 245.995 177.378 245.995 158.169Z" fill="#1E1E1E"/>
<path d="M233.977 210.693C212.893 228.35 185.565 244.95 175.619 244.95C165.672 244.95 138.345 228.35 117.26 210.693C79.1657 228.838 50.4841 264.197 40.764 307H310.473C300.753 264.197 272.072 228.838 233.977 210.693Z" fill="white"/>
</svg>
