<svg width="546" height="452" viewBox="0 0 546 452" fill="none" xmlns="http://www.w3.org/2000/svg">
<g clip-path="url(#clip0_72_15)">
<path d="M267.737 18.1336C189.974 18.1336 130.509 56.6388 126.935 158.936C123.366 261.233 142.884 310.458 31.6656 433.073C19.5128 446.471 8.99961 460.207 0 474.097V546.142H546.142V464.455C538.633 453.933 530.24 443.451 520.876 433.073C404.725 304.346 409.067 261.551 408.544 158.936C408.019 56.3262 345.505 18.1336 267.742 18.1336H267.737Z" fill="#212121" stroke="#FFC020" stroke-width="2"/>
<path d="M317.541 231.378C351.211 231.378 378.506 204.083 378.506 170.413C378.506 136.743 351.211 109.448 317.541 109.448C283.871 109.448 256.576 136.743 256.576 170.413C256.576 204.083 283.871 231.378 317.541 231.378Z" fill="white"/>
<path d="M272.655 299.898C218.445 299.898 166.456 321.433 128.124 359.765C89.7918 398.097 68.2571 450.086 68.2571 504.296C68.3427 512.553 68.9286 520.798 70.0117 528.984H475.383C476.437 520.796 476.994 512.551 477.05 504.296C477.05 450.086 455.515 398.097 417.183 359.765C378.851 321.433 326.862 299.898 272.652 299.898H272.655Z" fill="white"/>
<path d="M220.249 230.312C253.33 230.312 280.147 203.494 280.147 170.413C280.147 137.332 253.33 110.515 220.249 110.515C187.168 110.515 160.35 137.332 160.35 170.413C160.35 203.494 187.168 230.312 220.249 230.312Z" fill="white"/>
<path d="M275.71 206C215.485 206 154.589 212.638 131.914 225.913C131.717 238.128 131.235 249.88 130 261.533C157.488 305.171 250.321 365.93 272.76 364.989C294.578 364.075 378.029 307.707 410 264.936C406.867 250.476 405.28 236.001 404.459 220.594C378.28 210.869 327.257 206 275.714 206H275.71Z" fill="#212121"/>
<path d="M168.536 249.359C160.346 278.656 253.38 347.984 272.534 347.114C291.689 346.244 379.245 278.656 376.533 249.359C373.815 220.061 176.722 220.061 168.54 249.359H168.536Z" fill="#FFC020"/>
<path d="M274.585 227.385C225.35 227.385 175.472 234.31 168.987 248.161C178.411 280.76 255.315 336.696 272.533 335.915C290.097 335.117 365.174 278.222 375.421 246.19C367.675 233.655 321.427 227.386 274.585 227.386V227.385Z" fill="#FF3E03"/>
<path d="M168.536 249.359C160.346 278.656 253.38 313.85 272.534 312.98C291.689 312.11 379.245 278.656 376.533 249.359C373.815 220.061 176.722 220.061 168.54 249.359H168.536Z" fill="#FFC020"/>
<path d="M326.629 182.083C326.629 182.083 320.337 162.758 309.334 163.013C298.331 163.267 293.705 178.657 293.705 178.657" stroke="#212121" stroke-width="21.3337" stroke-linecap="round" stroke-linejoin="round"/>
<path d="M227.406 187.869C234.071 187.869 239.475 182.465 239.475 175.8C239.475 169.135 234.071 163.732 227.406 163.732C220.741 163.732 215.338 169.135 215.338 175.8C215.338 182.465 220.741 187.869 227.406 187.869Z" fill="#212121" stroke="#212121" stroke-width="21.3337" stroke-linecap="round" stroke-linejoin="round"/>
</g>
<defs>
<clipPath id="clip0_72_15">
<rect width="546.142" height="546.142" fill="white"/>
</clipPath>
</defs>
</svg>
